<svg t="1705556857202" class="icon" viewBox="0 0 1372 1024" version="1.1" xmlns="http://www.w3.org/2000/svg" p-id="6252" width="200" height="200"><path d="M1.735593 194.386441v694.237288c0 69.423729 57.274576 124.962712 126.698305 124.962712h1115.986441c71.159322 0 126.698305-55.538983 126.698305-124.962712v-694.237288H1.735593z m834.820339 366.210169c19.091525 1.735593 29.505085 12.149153 31.240678 29.505085-1.735593 17.355932-12.149153 27.769492-31.240678 29.505085h-98.928813v45.125423h98.928813c19.091525 1.735593 29.505085 12.149153 31.240678 29.505085-1.735593 17.355932-12.149153 27.769492-31.240678 29.505085h-98.928813v81.572881c-1.735593 29.505085-19.091525 45.125424-50.332204 45.125424-31.240678 0-48.59661-13.884746-50.332203-45.125424v-83.308474H538.033898c-19.091525-1.735593-29.505085-12.149153-31.240678-29.505085 1.735593-17.355932 12.149153-27.769492 31.240678-29.505085h98.928814v-45.125424H538.033898c-19.091525-1.735593-29.505085-12.149153-31.240678-29.505084 1.735593-17.355932 12.149153-27.769492 31.240678-29.505085h55.538983l-85.044067-118.020339c-6.942373-8.677966-10.413559-19.091525-10.41356-29.505085 3.471186-29.505085 20.827119-45.125424 50.332204-48.59661 17.355932 1.735593 31.240678 8.677966 39.918644 20.827119l98.928813 138.847457 98.928814-138.847457c8.677966-12.149153 22.562712-19.091525 39.918644-20.827119 29.505085 3.471186 46.861017 20.827119 50.332203 50.332203 0 10.413559-3.471186 20.827119-10.413559 29.505085L781.016949 560.59661h55.538983zM1372.854237 133.640678c0-69.423729-57.274576-124.962712-126.698305-124.962712H130.169492C60.745763 8.677966 3.471186 64.216949 3.471186 133.640678h1369.383051z" fill="#F97D1D" p-id="6253"></path></svg>