<svg t="1705557049245" class="icon" viewBox="0 0 1024 1024" version="1.1" xmlns="http://www.w3.org/2000/svg" p-id="8209" width="200" height="200"><path d="M797.6 545.6c24.8 17.6 46.4 40 62.4 66.4-15.2 15.2-24.8 36-24.8 60 0 37.6 24 68.8 57.6 80-3.2 31.2-12 60.8-26.4 87.2-20.8-5.6-44-3.2-64 8-32 19.2-48 55.2-40.8 90.4-27.2 12.8-56.8 20-88.8 20.8-5.6-20.8-19.2-39.2-39.2-51.2-32-18.4-72-13.6-98.4 9.6-24.8-17.6-46.4-40-62.4-66.4 15.2-15.2 24.8-36.8 24.8-60 0-36.8-24-68.8-57.6-80 2.4-31.2 12-60.8 26.4-87.2 20.8 5.6 44 3.2 64-8 32.8-18.4 48-55.2 40.8-90.4 27.2-12.8 56.8-20 88.8-20.8 5.6 20.8 19.2 40 39.2 51.2 32 19.2 72 13.6 98.4-9.6z" fill="#FFCC00" p-id="8210"></path><path d="M469.6 65.6c56.8 0 108.8 23.2 146.4 60.8 37.6 37.6 60.8 88.8 60.8 146.4 0 56.8-23.2 108.8-60.8 146.4-37.6 37.6-89.6 60.8-146.4 60.8s-108.8-23.2-146.4-60.8c-37.6-37.6-60.8-89.6-60.8-146.4 0-57.6 23.2-108.8 60.8-146.4 37.6-37.6 89.6-60.8 146.4-60.8z m118.4 88.8c-30.4-30.4-72-48.8-118.4-48.8-46.4 0-88 18.4-118.4 48.8-30.4 30.4-48.8 72-48.8 118.4 0 46.4 18.4 88 48.8 118.4 30.4 30.4 72 48.8 118.4 48.8 46.4 0 88-18.4 118.4-48.8 30.4-30.4 48.8-72 48.8-118.4 0-46.4-18.4-88-48.8-118.4z" p-id="8211"></path><path d="M505.6 905.6c11.2 0 20 8.8 20 20s-8.8 20-20 20H84c-10.4 0-19.2-8-20-18.4-0.8-8.8-1.6-17.6-2.4-27.2-0.8-9.6-0.8-19.2-0.8-27.2C60.8 766.4 97.6 668.8 160 592c63.2-78.4 152.8-134.4 255.2-155.2 11.2-2.4 21.6 4.8 23.2 15.2 2.4 11.2-4.8 21.6-15.2 23.2-92.8 19.2-174.4 70.4-232 141.6-56.8 69.6-90.4 158.4-90.4 256 0 8.8 0 17.6 0.8 24.8 0 2.4 0 4.8 0.8 7.2h403.2z" p-id="8212"></path><path d="M860 496c13.6 9.6 26.4 20.8 37.6 32.8 11.2 12 21.6 24.8 30.4 39.2 4.8 8 3.2 18.4-3.2 24.8-5.6 5.6-10.4 12.8-14.4 20.8-3.2 7.2-4.8 16-4.8 24.8 0 14.4 4.8 27.2 12 37.6 8 11.2 19.2 19.2 32 23.2 9.6 3.2 14.4 12 13.6 21.6a232 232 0 0 1-9.6 48c-4.8 16-11.2 31.2-19.2 46.4-4.8 8-14.4 12-22.4 9.6-8-2.4-16.8-2.4-25.6-1.6-8 0.8-16 4-23.2 8l-0.8 0.8c-11.2 7.2-20 16.8-25.6 28.8-5.6 12-7.2 26.4-4.8 39.2 1.6 8.8-3.2 18.4-11.2 21.6-15.2 7.2-31.2 12.8-47.2 16-16 4-32.8 5.6-49.6 6.4-9.6 0-17.6-6.4-20-14.4-2.4-8-5.6-16-11.2-22.4-4.8-6.4-11.2-12-19.2-16.8-12-7.2-25.6-9.6-38.4-8-12.8 1.6-26.4 7.2-36 16-7.2 6.4-17.6 6.4-24.8 1.6-13.6-9.6-26.4-20.8-37.6-32.8-11.2-12-21.6-24.8-30.4-39.2-4.8-8-4-18.4 2.4-24.8 5.6-5.6 11.2-12.8 14.4-20.8 3.2-7.2 4.8-16 4.8-24.8 0-14.4-4-27.2-12-37.6-8-11.2-19.2-19.2-32-23.2-8.8-3.2-14.4-12-13.6-21.6a232 232 0 0 1 9.6-48c4.8-16 11.2-31.2 19.2-46.4 4-8 13.6-12 22.4-9.6 8 2.4 16.8 2.4 24.8 1.6 8-0.8 16-4 24-8 12-7.2 20.8-17.6 26.4-29.6 5.6-12 7.2-26.4 4.8-39.2-2.4-8.8 3.2-18.4 11.2-21.6 15.2-7.2 30.4-12.8 47.2-16 16-4 32.8-5.6 49.6-6.4 9.6 0 17.6 6.4 20 14.4 2.4 8 5.6 16 11.2 22.4 4.8 6.4 11.2 12 19.2 16.8 12 7.2 25.6 9.6 38.4 8 13.6-1.6 26.4-7.2 36-16 8-6.4 17.6-6.4 25.6-1.6z m8 60c-6.4-6.4-12.8-12.8-20-19.2a104 104 0 0 1-45.6 16c-20.8 2.4-43.2-2.4-62.4-13.6-12.8-7.2-22.4-16-31.2-26.4-4.8-6.4-8.8-13.6-12-20.8-9.6 0.8-18.4 2.4-27.2 4.8s-17.6 4.8-26.4 8c0.8 16-2.4 32.8-9.6 47.2-8.8 19.2-23.2 36-43.2 47.2-12 7.2-25.6 11.2-38.4 12.8-8 0.8-16 0.8-24 0-4 8-7.2 16.8-9.6 25.6-2.4 8.8-4.8 17.6-6.4 26.4 14.4 8 26.4 18.4 36 31.2 12.8 17.6 20 38.4 20 60.8 0 14.4-3.2 28-8 40-3.2 8-7.2 14.4-12 21.6 5.6 7.2 11.2 14.4 17.6 21.6 6.4 6.4 12.8 12.8 20 18.4a104 104 0 0 1 45.6-16c20.8-2.4 43.2 2.4 62.4 13.6 12 7.2 22.4 16 30.4 26.4 4.8 6.4 8.8 13.6 12.8 20.8 9.6-0.8 18.4-2.4 27.2-4.8s17.6-4.8 26.4-8c-0.8-16 2.4-32.8 8.8-47.2 8-19.2 22.4-35.2 41.6-46.4l0.8-0.8c12-7.2 25.6-11.2 38.4-12.8 8-0.8 16-0.8 24 0 4-8 7.2-16.8 9.6-25.6 2.4-8.8 4.8-17.6 6.4-26.4-14.4-8-27.2-18.4-36-32-12.8-16.8-20-38.4-20-60.8 0-14.4 2.4-28 8-40 3.2-8 7.2-14.4 12-21.6-3.2-5.6-9.6-12.8-16-20z" p-id="8213"></path><path d="M628 680.8c-11.2 0-20-8.8-20-20s8.8-20 20-20h178.4c11.2 0 20 8.8 20 20s-8.8 20-20 20H628zM628 767.2c-11.2 0-20-8.8-20-20s8.8-20 20-20h178.4c11.2 0 20 8.8 20 20s-8.8 20-20 20H628z" p-id="8214"></path><path d="M736.8 833.6c0 11.2-8.8 20-20 20s-20-8.8-20-20V644c0-11.2 8.8-20 20-20s20 8.8 20 20v189.6z" p-id="8215"></path><path d="M641.6 596.8c-8-8-8-20.8 0-28 8-8 20.8-8 28 0l47.2 47.2 45.6-45.6c8-8 20.8-8 28 0 8 8 8 20.8 0 28l-60 60c-8 8-20.8 8-28 0l-60.8-61.6z" p-id="8216"></path></svg>