<svg t="1705556247178" class="icon" viewBox="0 0 1024 1024" version="1.1" xmlns="http://www.w3.org/2000/svg" p-id="2136" width="200" height="200"><path d="M662.801 375.467a273.067 273.067 0 1 0-506.436 0h75.844a204.8 204.8 0 1 1 354.816 0h75.776zM921.6 708.949c0-48.128-5.154-95.232-17.818-140.8-9.25-31.402-36.147-56.149-71.236-56.149-21.163 0-40.414 8.875-53.419 23.04v-5.973c0-37.718-31.88-68.267-71.236-68.267s-71.236 30.55-71.236 68.267v-34.134c0-37.717-31.88-68.266-71.236-68.266s-71.237 30.549-71.237 68.266V273.067c0-37.718-31.88-68.267-71.236-68.267s-71.236 30.55-71.236 68.267v389.29c0 18.944-16.043 34.134-35.601 34.134-3.414 0-6.588-0.512-9.796-1.366l-100.626-39.253a73.933 73.933 0 0 0-32.05-7.339c-39.356 0-71.237 30.55-71.237 68.267 0 28.33 18.159 52.736 43.793 63.147C261.803 837.12 354.406 907.264 419.226 1024h406.937c61.44-95.232 95.437-205.824 95.437-315.05z" fill="#FF8901" p-id="2137"></path></svg>