<svg t="1705557351169" class="icon" viewBox="0 0 1024 1024" version="1.1" xmlns="http://www.w3.org/2000/svg" p-id="11929" width="200" height="200"><path d="M742.252663 0.393768c-155.932124 0-263.824554 74.42215-280.756578 268.54977 0 0-5.90652 62.609111-56.70259 116.949093-50.402303 53.946215-104.348518 68.909398-135.456189 74.815918C80.722438 496.935205 0.787536 589.86445 0.787536 741.465127 1.181304 897.791019 103.95475 1023.796776 283.119185 1023.796776c0 0 187.433564 7.87536 326.039897-74.42215 243.348618-144.906621 358.72264-379.986111 386.286399-465.827533 23.626079-74.028382 30.713903-194.12762 29.138831-201.215444C1024.190544 107.104894 898.184787 0.393768 742.252663 0.393768z" fill="#F5B124" p-id="11930"></path><path d="M587.89561 303.201353c-7.087824 75.997222-44.495783 137.818797-95.685621 187.039796-61.821575 59.065199-144.906621 97.260694-236.654563 88.991566 0 0-28.745063-1.181304-31.501439-18.507096-7.481592-45.283319 40.951871-35.045351 57.096359-33.864047 62.215343 4.725216 100.410838-15.356952 148.056764-54.339983 58.277663-48.039695 98.441998-103.95475 105.136054-173.651684 0 0 0.393768-35.832887 38.195495-26.382455 17.325792 3.543912 15.356952 30.713903 15.356951 30.713903z" fill="#FFFFFF" p-id="11931"></path></svg>