<svg t="1705557501200" class="icon" viewBox="0 0 1047 1024" version="1.1" xmlns="http://www.w3.org/2000/svg" p-id="14903" width="200" height="200"><path d="M849.352127 815.932049m-182.668062 0a182.668062 182.668062 0 1 0 365.336123 0 182.668062 182.668062 0 1 0-365.336123 0Z" fill="#B9D800" p-id="14904"></path><path d="M849.2891 1014.356866a198.424817 198.424817 0 1 1 198.535114-198.424817 198.645411 198.645411 0 0 1-198.535114 198.424817z m0-365.336124a166.911307 166.911307 0 1 0 167.021604 166.911307A167.021604 167.021604 0 0 0 849.2891 649.020742z" fill="#809E00" p-id="14905"></path><path d="M15.756755 339.621099v0.976919c0 97.691882 75.821506 176.964116 169.337847 176.964117s169.337847-79.224965 169.337847-176.964117v-0.976919h0.094541v0.976919c0 97.691882 75.821506 176.964116 169.337847 176.964117s169.353604-79.224965 169.353603-176.964117v-0.976919h0.078784v0.976919c0 97.691882 75.821506 176.964116 169.337847 176.964117s169.337847-79.224965 169.337847-176.964117v-0.976919l-0.283622 0.346649L921.407768 15.756755H127.771527l-111.872961 326.464209" fill="#B9D800" p-id="14906"></path><path d="M862.635071 533.31889c-75.537884 0-140.660553-47.364806-169.400874-115.024313-28.740321 67.754047-93.86299 115.024312-169.400874 115.024313s-140.613282-47.270265-169.36936-115.024313c-28.756078 67.659506-93.847233 115.024312-169.369361 115.024313C83.038099 533.31889 0 446.861574 0 340.598018v-1.055702a15.756755 15.756755 0 0 1 3.561027-9.910999L112.865637 10.651566A15.756755 15.756755 0 0 1 127.771527 0h793.636241a15.756755 15.756755 0 0 1 14.921647 10.68308l109.115529 320.77602a15.756755 15.756755 0 0 1 2.284729 8.083216v1.055702c0 106.263556-83.022343 192.720872-185.094602 192.720872zM693.17117 323.864344A15.898566 15.898566 0 0 1 709.053979 339.699883v0.898135c0 88.899612 68.90429 161.207361 153.581092 161.207361 83.81018 0 152.162984-70.905398 153.565335-158.465686L910.125931 31.51351H139.037607L31.51351 345.15172c2.300486 86.803964 70.275128 156.653659 153.518065 156.653659 84.692559 0 153.581092-72.307749 153.581092-161.207361v-0.898135a15.756755 15.756755 0 0 1 15.756755-15.835539 15.835539 15.835539 0 0 1 15.835539 15.756755v0.945406c0 88.899612 68.90429 161.207361 153.581092 161.207361s153.596849-72.307749 153.596848-161.207361v-0.898135a15.756755 15.756755 0 0 1 15.756756-15.835539zM645.506986 1024H91.121315a15.756755 15.756755 0 0 1-15.756755-15.756755V646.279067a15.756755 15.756755 0 0 1 31.51351 0v346.207423h538.628916a15.756755 15.756755 0 0 1 0 31.51351z" fill="#809E00" p-id="14907"></path><path d="M426.913522 922.195605H217.44322a15.756755 15.756755 0 0 1-15.756755-15.756755V696.448575a15.756755 15.756755 0 0 1 31.51351 0v194.23352h193.713547a15.756755 15.756755 0 1 1 0 31.51351z" fill="#809E00" p-id="14908"></path><path d="M650.123715 209.423032h-255.259432a15.756755 15.756755 0 0 1 0-31.51351h255.259432a15.756755 15.756755 0 0 1 0 31.51351z" fill="#FFFFFF" p-id="14909"></path><path d="M889.610636 714.820952c13.865944 26.66043 41.61359 57.953345 65.437804 75.931802A119.751339 119.751339 0 0 0 932.799902 812.118914c-4.159783-3.813135-8.555918-7.878378-12.952053-12.053917v0.63027c-2.300486 62.39675-5.089432 87.35545-13.172647 96.021665-5.782729 6.775405-12.038161 9.091648-20.814674 9.942513-8.335323 1.055703-21.287376 1.055703-35.153321 0.63027a56.929156 56.929156 0 0 0-8.792269-25.368376c12.495107 1.055703 24.738105 1.055703 30.30024 1.055703 4.159783 0 6.696621-0.646027 9.249215-2.757432 4.853081-4.853081 7.169324-22.831538 9.249216-65.768696h-48.294455c-6.003324 39.974888-21.271619 75.931803-80.706099 96.021666a85.637964 85.637964 0 0 0-17.332431-22.421863c51.571859-15.236782 63.830615-43.141995 68.683696-73.599803h-37.248969V802.018834a119.625285 119.625285 0 0 1-13.865945 12.053918A184.889764 184.889764 0 0 0 738.582138 794.140457c27.054348-17.77362 50.421616-47.380563 63.373669-78.894073l29.606943 7.405675a241.503785 241.503785 0 0 1-43.252293 66.840155h121.878501c-17.332431-19.680187-34.460023-43.157752-46.482428-65.784453z" fill="#809E00" p-id="14910"></path></svg>