<svg t="1705556722719" class="icon" viewBox="0 0 1024 1024" version="1.1" xmlns="http://www.w3.org/2000/svg" p-id="4308" width="200" height="200"><path d="M1013.589333 328.533333L764.586667 27.392a43.093333 43.093333 0 0 0-33.109334-15.701333H291.328a42.922667 42.922667 0 0 0-33.28 15.872L10.922667 328.533333a46.506667 46.506667 0 0 0-1.194667 56.917334l467.114667 621.056a42.666667 42.666667 0 0 0 68.778666 0l469.077334-621.056a46.336 46.336 0 0 0-1.109334-57.088z" fill="#F09D26" p-id="4309"></path><path d="M495.104 667.818667l-168.96-278.186667a19.968 19.968 0 0 0-17.066667-9.557333H276.48a19.968 19.968 0 0 1-20.053333-19.797334V336.213333c0-10.922667 9.045333-19.797333 20.053333-19.797333h96c7.253333 0 13.824 3.84 17.408 9.984L512.938667 541.013333a20.138667 20.138667 0 0 0 34.218666 0.853334l138.325334-216.234667a19.968 19.968 0 0 1 16.896-9.216h45.909333c11.008 0 19.968 8.874667 19.968 19.797333v24.064a19.968 19.968 0 0 1-19.968 19.797334h-32.682667a19.968 19.968 0 0 0-17.066666 9.557333L529.408 667.818667c-7.68 12.8-26.453333 12.8-34.304 0z" fill="#FFFFFF" p-id="4310"></path></svg>